<svg class="GvVRe sdOa3 zjlQq" viewBox="0 0 96 48" focusable="false" aria-hidden="true"
    xmlns="http://www.w3.org/2000/svg" fill="none">
    <path fill-rule="evenodd" clip-rule="evenodd"
        d="M70.013 24l-.001.5c.217 0 .433.007.648.02l.032-.499c.657.041 1.298.14 1.918.29l-.118.486c.621.152 1.225.36 1.805.62l.206-.456c.64.288 1.249.635 1.818 1.035l-.288.41c.521.366 1.009.78 1.456 1.234l.357-.35c.47.48.898 1.002 1.276 1.56l-.414.28c.356.529.665 1.089.92 1.673l.458-.2c.268.614.482 1.257.635 1.924l-.487.112c.142.618.228 1.25.256 1.892l.5-.021a11.242 11.242 0 01-.1 2.047l-.495-.07c-.09.634-.237 1.255-.44 1.857l.475.16a10.945 10.945 0 01-.794 1.803l-.438-.242a10.533 10.533 0 01-1.07 1.58l.386.318c-.425.52-.897.999-1.409 1.433l-.323-.382c-.486.412-1.01.78-1.562 1.097l.25.433c-.592.34-1.219.627-1.873.854l-.164-.473c-.6.208-1.22.361-1.853.457l.075.494a11.077 11.077 0 01-2.033.118l.017-.5a10.508 10.508 0 01-1.894-.237l-.107.489a10.92 10.92 0 01-1.863-.587l.193-.461a10.482 10.482 0 01-1.688-.892l-.274.419a11.054 11.054 0 01-1.628-1.294l.347-.36c-.46-.442-.879-.925-1.251-1.443l-.406.293a10.99 10.99 0 01-1.023-1.735l.453-.214a10.416 10.416 0 01-.653-1.793l-.483.128c-.169-.639-.28-1.3-.331-1.979l.498-.036a10.824 10.824 0 01.032-1.928l-.498-.054c.07-.65.197-1.283.375-1.894l.48.14c.178-.613.413-1.207.699-1.776l-.446-.225c.317-.63.693-1.225 1.12-1.778l.397.305c.39-.504.825-.973 1.3-1.399l-.335-.371c.5-.45 1.042-.854 1.62-1.206l.26.427a10.463 10.463 0 011.712-.842l-.18-.467a10.927 10.927 0 011.942-.544l.09.492A10.571 10.571 0 0170 24.5V24h.013zM35 30a8 8 0 110 16 8 8 0 010-16zm-.001 4a4.001 4.001 0 000 8A4.001 4.001 0 0039 38.002 4.003 4.003 0 0034.999 34zM76.5 2L76 4l-1 1 3 15 4 5-1.444 2.41A12.985 12.985 0 0070 22c-7.078 0-12.834 5.652-12.996 12.693L57 35v7h-8v-7h-4.458c-1.274-4.058-5.066-7-9.542-7-5.524 0-10 4.474-10 10h-2l-2-2v-9.032c0-1.881 1.716-5.662 1.817-5.883l.005-.01L43 16.468V8l-2-2 1.5-1.5L45 7v8.93l6.492-1.069L55 5l-1.5-1-.502-2H76.5zM55 38h-4v2h4v-2zm15-8.003a5.001 5.001 0 00-4.998 5.002A4.999 4.999 0 0070 39.997a5.002 5.002 0 005.002-4.998A5.004 5.004 0 0070 29.997zM55 34h-4v2h4v-2zm0-4h-4v2h4v-2zM73.674 5H69v13h6.5L73.674 5zM67 5H56.65L53 18h.271l.114-.001h.284c1.115-.004 3.47-.01 5.897-.013h.694l1.035-.002h3.155c1.3.001 2.255.006 2.51.014L67 18V5z"
        fill="#FF6600FF"></path>
</svg>