<svg class="GvVRe sdOa3 zjlQq" viewBox="0 0 96 48" focusable="false" aria-hidden="true"
    xmlns="http://www.w3.org/2000/svg" fill="none">
    <path fill-rule="evenodd" clip-rule="evenodd"
        d="M10 30h83v6a4 4 0 01-4 4h-4.016a7.5 7.5 0 00-14.968 0H32.984a7.5 7.5 0 00-14.968 0h-6.248a4 4 0 01-3.993-3.761L7 30l3-17.5H9l-1 4c-.09.347-2 .608-2 0 0-1.311 1.65-4.827 1.911-5.083.204-.205 1.216-.917 3.125-2.121C12.36 8.462 14.905 7.993 17.58 8h70.859A2.64 2.64 0 0191 10l2 14v5H12.5L27 24l-2-12H13l-3 18zm78.977-18L91 24h-8l-2-12h7.977zM80 12l2 12h-8l-2-12h8zm-9 0l2 12h-8l-2-12h8zm-9 0l2 12h-8l-2-12h8zm-9 0l2 12h-8l-2-12h8zm-9 0h-8l2 12h8l-2-12zm-9 0l2 12h-8l-2-12h8zm48 28.5a5.5 5.5 0 11-11 0 5.5 5.5 0 0111 0zm-9 0a3.5 3.5 0 107 0 3.5 3.5 0 00-7 0zM25.5 46a5.5 5.5 0 100-11 5.5 5.5 0 000 11zm0-2a3.5 3.5 0 110-7 3.5 3.5 0 010 7z"
        fill="#FF6600FF"></path>
</svg>