<svg class="GvVRe sdOa3 zjlQq" viewBox="0 0 96 48" focusable="false" aria-hidden="true" xmlns="http://www.w3.org/2000/svg" fill="none"><path fill-rule="evenodd" clip-rule="evenodd" d="M59 40c0 .339.021.672.062 1h-4.124a8 8 0 10-15.876 0H20l2-2h13V21h2V2h3v24h3.936L48 6c3.688.027 15 0 15 0l1 15h5v11.252A8 8 0 0059 40zm-4-18l-1.718 2h-7.144L49.5 8H61l1 14h-7zm3.588-8H60l1 7h-8s-1.415-2 0-2h5l.588-5zM73 40a6 6 0 11-12 0 6 6 0 0112 0zm-9 0a3 3 0 106 0 3 3 0 00-6 0zm-17 6a6 6 0 100-12 6 6 0 000 12zm0-3a3 3 0 110-6 3 3 0 010 6z" fill="#FF6600FF"></path></svg>