<svg class="GvVRe sdOa3 zjlQq" viewBox="0 0 96 48" focusable="false" aria-hidden="true"
    xmlns="http://www.w3.org/2000/svg" fill="none">
    <path fill-rule="evenodd" clip-rule="evenodd"
        d="M51 38v.5h2V38h1v.5h2V38h1v.5h2V38h1v.5h2V38h1v.5h2V38h1v.5h2V38h1v.5h2V38h1v.5h2V38h1v.5h2V38h1v.5h2V38h1v.5h2V38h1v.5c.526 0 1.035.116 1.499.336l.195.1.242-.437c.31.171.593.382.845.626l-.348.36c.373.36.661.797.843 1.281l.072.21.478-.145c.1.329.16.676.172 1.036l-.5.017.001.04.001.067c0 .49-.097.96-.284 1.392l-.1.213.444.23c-.16.312-.36.6-.594.858l-.371-.335a3.509 3.509 0 01-1.254.885l-.207.078.163.473a3.986 3.986 0 01-1.032.206l-.033-.499-.107.006-.108.002h-1.771v.5h-1v-.5h-2v.5h-1v-.5h-2v.5h-1v-.5h-2v.5h-1v-.5h-2v.5h-1v-.5h-2v.5h-1v-.5h-2v.5h-1v-.5h-2v.5h-1v-.5h-2v.5h-1v-.5h-2v.5h-1v-.5h-2v.5h-1v-.5h-2v.5h-1v-.5H48c-.45 0-.888-.085-1.296-.248l-.202-.088-.214.452c-.316-.15-.61-.34-.874-.564l.323-.382a3.512 3.512 0 01-.925-1.224l-.085-.204-.468.177a3.976 3.976 0 01-.24-1.022l.498-.05a3.53 3.53 0 01.185-1.522l.088-.222-.459-.2c.14-.32.32-.618.534-.888l.392.311c.322-.406.73-.736 1.193-.965l.202-.092-.193-.462a3.966 3.966 0 011.014-.273l.065.496c.094-.012.204-.02.31-.026L48 38.5h2V38h1zm33 3H48a1 1 0 00-.117 1.993L48 43h36a1 1 0 100-2zM31.51 1.682l19.56 14.097L52 17h5.826L59 25h4.798l3.221-3h13.456l1.566 2.943h2.147L86 28.371v5.214L84.262 35H68.547L67 37H54l-2-2h-3.975L46 33.291l1-9.426-1.394-5.419L31.51 6.938l-15.01 9.59s-3.308.446-3.492 3.228L13 20v6c0 .428.28.883.84 1.367l.16.133v.5c-3-.5-8-3.5-8-10 0-1.968 1.922-5.364 7.18-5.496l.32-.004v-1l1.58-.059 16.43-9.759zM56 19h-6.5l-1 7H56v-7zM30 4.5L15.5 13l1 1.5 14-9-.5-1z"
        fill="#FF6600FF"></path>
</svg>