<svg class="GvVRe sdOa3 zjlQq" viewBox="0 0 96 48" focusable="false" aria-hidden="true"
    xmlns="http://www.w3.org/2000/svg" fill="none">
    <path fill-rule="evenodd" clip-rule="evenodd"
        d="M20 30V6h68v24H20zM8 34h12v-2h68v5h-6.865a7.5 7.5 0 00-6.635-4 7.5 7.5 0 00-6.635 4h-27.73a7.5 7.5 0 00-6.635-4 7.5 7.5 0 00-6.635 4H20v-2h-9v4h-1v-4H8v-1zm72 6.5a5.5 5.5 0 11-11 0 5.5 5.5 0 0111 0zm-8.5 0a3 3 0 106 0 3 3 0 00-6 0zm-38 5.5a5.5 5.5 0 100-11 5.5 5.5 0 000 11zm0-2.5a3 3 0 110-6 3 3 0 010 6z"
        fill="#FF6600FF"></path>
</svg>