<svg width="12" height="12" viewBox="0 0 12 12" fill="none" xmlns="http://www.w3.org/2000/svg">
<path d="M5.99999 4.58599L10.243 0.342987C10.6335 -0.0474783 11.2665 -0.047479 11.657 0.342986C12.0475 0.733452 12.0475 1.36652 11.657 1.75699L7.41399 5.99999L11.657 10.243C12.0475 10.6335 12.0475 11.2665 11.657 11.657C11.2665 12.0475 10.6335 12.0475 10.243 11.657L5.99999 7.41399L1.75699 11.657C1.36652 12.0475 0.733452 12.0475 0.342986 11.657C-0.047479 11.2665 -0.0474789 10.6335 0.342986 10.243L4.58599 5.99999L0.342987 1.75699C-0.0474782 1.36652 -0.0474791 0.733452 0.342986 0.342986C0.733452 -0.0474791 1.36652 -0.0474789 1.75699 0.342987L5.99999 4.58599Z" fill="#1D1D1B"/>
</svg>
