<svg class="GvVRe sdOa3 zjlQq" viewBox="0 0 96 48" focusable="false" aria-hidden="true"
    xmlns="http://www.w3.org/2000/svg" fill="none">
    <path fill-rule="evenodd" clip-rule="evenodd"
        d="M88 30V6H26.139v24H88zM11.544 12.91L11 14h13v-4l-10.995 1.833a2 2 0 00-1.46 1.078zM88 32H24V15.147H10.472L6 27.739V39.16L9 41h6.016a7.5 7.5 0 1114.967 0h37.033a7.5 7.5 0 0114.119-4H88v-5zM9.197 26.463L21 24.192l.027-7.121c-.002.032-8.996-.035-8.996-.035l-2.834 9.427zM80 40.5a5.5 5.5 0 11-11 0 5.5 5.5 0 0111 0zm-8.5 0a3 3 0 106 0 3 3 0 00-6 0zm-49 5.5a5.5 5.5 0 100-11 5.5 5.5 0 000 11zm0-2.5a3 3 0 110-6 3 3 0 010 6z"
        fill="#FF6600FF"></path>
</svg>