<svg class="GvVRe sdOa3 zjlQq" viewBox="0 0 96 48" focusable="false" aria-hidden="true" xmlns="http://www.w3.org/2000/svg" fill="none"><path fill-rule="evenodd" clip-rule="evenodd" d="M53 36a5 5 0 110 10 5 5 0 010-10zm-24 0a5 5 0 110 10 5 5 0 010-10zm40 0a5 5 0 110 10 5 5 0 010-10zm-16 2.5a2.5 2.5 0 100 5 2.5 2.5 0 000-5zm-24 0a2.5 2.5 0 100 5 2.5 2.5 0 000-5zm40 0a2.5 2.5 0 100 5 2.5 2.5 0 000-5zM38 11.147V32h40v9h-2a7 7 0 10-14 0h-2a7 7 0 10-14 0H36a7 7 0 10-14 0h-2l-2-1.84V23.739l4.472-12.592H38zm-13.913 1.89l-.056-.001-2.834 9.427L31 20.192l.027-7.121c0 .004-.133.007-.363.008h-.628c-.599-.001-1.404-.006-2.23-.011l-.552-.005c-1.47-.01-2.873-.024-3.167-.027zM38 6v4H23l.544-1.09a2 2 0 011.46-1.077L38 6z" fill="#FF6600FF"></path></svg>