<svg class="GvVRe sdOa3 zjlQq" viewBox="0 0 96 48" focusable="false" aria-hidden="true"
    xmlns="http://www.w3.org/2000/svg" fill="none">
    <path fill-rule="evenodd" clip-rule="evenodd"
        d="M2 31V6h92v25H2zm31 3H2v-1.9l92-.1v5l-4 4h-2a7 7 0 10-14 0h-2a7 7 0 10-14 0h-2a7 7 0 10-14 0h-2l-7-7zm48 12a5 5 0 100-10 5 5 0 000 10zm0-2.5a2.5 2.5 0 110-5 2.5 2.5 0 010 5zM70 41a5 5 0 11-10 0 5 5 0 0110 0zm-7.5 0a2.5 2.5 0 105 0 2.5 2.5 0 00-5 0zM49 46a5 5 0 100-10 5 5 0 000 10zm0-2.5a2.5 2.5 0 110-5 2.5 2.5 0 010 5z"
        fill="#FF6600FF"></path>
</svg>