<svg xmlns="http://www.w3.org/2000/svg" xmlns:xlink="http://www.w3.org/1999/xlink" version="1.1" x="0px" y="0px" viewBox="0 0 1024 1280" style="enable-background:new 0 0 1024 1024;" xml:space="preserve"><g><g><path d="M250.2,587.9c-5.2,0-9.9-2.9-12.3-7.5c-1-2-1.6-4.2-1.6-6.4c0-7.7,6.2-13.9,13.9-13.9c7.7,0,13.9,6.2,13.9,13.9    c0,2.2-0.5,4.5-1.6,6.4C260.2,585,255.4,587.9,250.2,587.9z M250.2,572.9c-0.3,0-0.7,0.2-0.9,0.6c-0.1,0.2-0.1,0.4-0.1,0.5    c0,0.6,0.5,1.1,1.1,1.1c0.6,0,1.1-0.5,1.1-1.1c0-0.2,0-0.3-0.1-0.5C250.9,573.1,250.5,572.9,250.2,572.9z"/></g><g><path d="M250.2,644c-26.2,0-50-14.5-62.1-37.7c-5.2-9.9-7.9-21.1-7.9-32.3c0-38.6,31.4-70,70-70c38.6,0,70,31.4,70,70    c0,10.9-2.4,21.4-7.3,31.1c-0.2,0.3-0.3,0.7-0.5,1C300.4,629.4,276.5,644,250.2,644z M250.2,519c-30.3,0-55,24.7-55,55    c0,8.9,2.1,17.5,6.2,25.3c9.5,18.3,28.2,29.6,48.8,29.6c20.7,0,39.4-11.4,48.9-29.9c0.1-0.2,0.2-0.3,0.2-0.5l0.1-0.2    c3.8-7.6,5.7-15.8,5.7-24.4C305.2,543.7,280.5,519,250.2,519z"/></g><g><rect x="242.7" y="511.5" width="15" height="25.9"/></g><g><rect x="242.7" y="610.5" width="15" height="25.9"/></g><g><rect x="187.7" y="566.5" width="25.9" height="15"/></g><g><rect x="286.8" y="566.5" width="25.9" height="15"/></g><g><rect x="207.7" y="526" transform="matrix(0.7071 -0.7071 0.7071 0.7071 -318.0766 310.0249)" width="15" height="25.9"/></g><g><rect x="277.7" y="596" transform="matrix(0.7071 -0.7071 0.7071 0.7071 -347.0881 380.0649)" width="15" height="25.9"/></g><g><rect x="202.2" y="601.5" transform="matrix(0.7071 -0.7071 0.7071 0.7071 -367.5896 330.5123)" width="25.9" height="15"/></g><g><rect x="272.3" y="531.5" transform="matrix(0.7071 -0.7071 0.7071 0.7071 -297.5541 359.5238)" width="25.9" height="15"/></g><g><path d="M775.2,587.9c-5.2,0-9.9-2.9-12.3-7.5c-1-2-1.6-4.2-1.6-6.4c0-7.7,6.2-13.9,13.9-13.9c7.7,0,13.9,6.2,13.9,13.9    c0,2.2-0.5,4.5-1.6,6.4C785.2,585,780.4,587.9,775.2,587.9z M775.2,572.9c-0.3,0-0.7,0.2-0.9,0.6c-0.1,0.2-0.1,0.4-0.1,0.5    c0,0.6,0.5,1.1,1.1,1.1c0.6,0,1.1-0.5,1.1-1.1c0-0.2,0-0.3-0.1-0.5C775.9,573.1,775.5,572.9,775.2,572.9z"/></g><g><path d="M775.2,644c-26.2,0-50-14.5-62.1-37.7c-5.2-9.9-7.9-21.1-7.9-32.3c0-38.6,31.4-70,70-70s70,31.4,70,70    c0,10.9-2.4,21.4-7.3,31.1c-0.2,0.3-0.3,0.7-0.5,1C825.4,629.4,801.5,644,775.2,644z M775.2,519c-30.3,0-55,24.7-55,55    c0,8.9,2.1,17.5,6.2,25.3c9.5,18.3,28.2,29.6,48.8,29.6c20.7,0,39.4-11.4,48.9-29.9c0.1-0.2,0.2-0.3,0.2-0.5l0.1-0.2    c3.8-7.6,5.7-15.8,5.7-24.4C830.2,543.7,805.5,519,775.2,519z"/></g><g><rect x="767.7" y="511.5" width="15" height="25.9"/></g><g><rect x="767.7" y="610.5" width="15" height="25.9"/></g><g><rect x="712.7" y="566.5" width="25.9" height="15"/></g><g><rect x="811.8" y="566.5" width="25.9" height="15"/></g><g><rect x="732.7" y="526" transform="matrix(0.7071 -0.7071 0.7071 0.7071 -164.3075 681.2563)" width="15" height="25.9"/></g><g><rect x="802.7" y="596" transform="matrix(0.7071 -0.7071 0.7071 0.7071 -193.319 751.2963)" width="15" height="25.9"/></g><g><rect x="727.2" y="601.5" transform="matrix(0.7071 -0.7071 0.7071 0.7071 -213.8333 701.7705)" width="25.9" height="15"/></g><g><rect x="797.3" y="531.5" transform="matrix(0.7071 -0.7071 0.7071 0.7071 -143.7933 730.782)" width="25.9" height="15"/></g><g><path d="M109,622.4c-7.2,0-13.4-5.3-14.5-12.4c-0.7-4.2-1.6-10.3-2.8-17.3c-3-18.6-7-44-9.3-59l-0.1-0.9    c-1.6-10.3,2.9-20.6,11.5-26.4c93.8-62.8,213.8-68.5,295.9-67.2c10.4,0.2,20.6,0.4,31.4,0.8c6.9,0.2,14.1,0.5,22.5,0.9l14.7,0.7    l-8.8,11H487c1.8,0,3.4-1.3,3.7-3.1l1.3-6.3l6.4,0.3c31.8,1.3,67.3,2,110.9-2.2c10.9-1,21.7-2.4,32.1-4c3-0.5,5.7-0.9,8.4-1.4    c2-0.3,4-0.7,6-1.1c1.4-0.3,2.4-1.6,2.3-3.1c-1.1-11.6-1.7-20.9-2.3-31.3c-0.2-3.8,1.2-7.5,3.9-10.2c2.7-2.7,6.4-4.2,10.2-4.1    c33.5,1.2,76.4,10.9,117.8,26.7c27.5,10.5,62,21.7,88.9,30.3c3.8,1.2,7.4,2.4,10.8,3.5c7.4,2.4,13.8,4.4,18.2,5.9    c8,2.6,10.7,3.5,11.8,7.7l1.1,3.9l-0.7,0.8c0.1,3.5,0.2,7,0.4,10.8c0.1,1.8,0.2,3.5,0.3,5.2l0.3,6.3c0.1,2.3,0.3,4.6,0.4,6.9    c0.1,1.8,0.2,3.5,0.3,5.3c0.2,4.2,0.3,8.3,0.4,12.6c0,0.8,0.1,2.9,0.3,3.5c0.3,0.2,1.1,0.8,1.6,1.1c0.8,0.5,1.7,1.1,2.7,1.9    c8.9,7.2,8.9,19.4,8.9,25.9l-0.1,28.3c0,4.4,0,11.6-5,17.1c-3.5,3.8-8.8,6.1-15.4,6.6c-7.7,0.6-16.1,1.2-25.2,1.8    c-7,0.5-14.4,1-22.1,1.6c-3.5,0.2-6.9-1.1-9.3-3.7c-2.4-2.6-3.4-6.1-2.9-9.5c0.7-4.2,1-8.4,1-12.7c0-43.5-35.4-79-78.9-79.1    c-0.1,0-0.1,0-0.2,0c-21.1,0-40.9,8.2-55.8,23.1c-15,14.9-23.2,34.8-23.2,56c0,8.4,1.3,16.6,3.9,24.5c1.1,3.3,0.6,6.9-1.4,9.9    c-2,3-5.1,4.8-8.7,5.1l0,0c-0.3,0-0.6,0-0.9,0l-270.5,4.3l-84.1,1.3c-0.1,0-0.1,0-0.2,0c-3.8,0-7.3-1.9-9.5-5    c-2.2-3.2-2.6-7.2-1.2-10.8c4-10,5.9-20.7,5.6-31.7c-1.2-42-35.1-75.7-77.1-76.7c-21.5-0.5-41.8,7.5-57.1,22.5    c-15.4,15-23.8,35.1-23.8,56.6c0,10.9,2.2,21.5,6.5,31.4l1.6,3.7l-2.2,3.4c-1.5,2.4-1.8,2.7-2.9,4.5l-2.9,4.5l-62.1,0.9    C109.1,622.4,109,622.4,109,622.4z M371.8,454c-79,0-185.8,8.7-269.7,64.8c-3.8,2.5-5.7,7.1-5,11.6l0.1,0.9    c2.3,15,6.4,40.4,9.3,59c1.1,6.9,2,12.9,2.7,17.1l52.8-0.8c-3.9-10.4-5.8-21.4-5.8-32.6c0-25.5,10.1-49.4,28.3-67.3    c18.3-17.8,42.4-27.3,68-26.7c24.1,0.6,46.8,10.3,64,27.4c17.2,17.1,27.1,39.8,27.8,63.8c0.3,11.3-1.3,22.3-4.9,32.8l345.1-5.4    c-2.2-8-3.3-16.3-3.3-24.6c0-25.2,9.8-48.8,27.6-66.6c17.8-17.8,41.5-27.5,66.7-27.5c51.7,0.1,93.8,42.3,93.8,94.1    c0,3.6-0.2,7.1-0.6,10.7c6.2-0.4,12.2-0.9,17.9-1.3c9.1-0.6,17.5-1.2,25.2-1.8c2.6-0.2,4.6-0.8,5.4-1.8c1.1-1.2,1.1-5.1,1.1-7    l0.1-28.3c0-6-0.4-11.8-3.3-14.2c-0.3-0.3-0.9-0.6-1.4-1c-1.6-1-3.7-2.4-5.4-4.7c-3.2-4.2-3.3-9.2-3.3-12.2    c-0.1-4.1-0.2-8.1-0.4-12.2c-0.1-1.8-0.2-3.5-0.2-5.2c-0.1-2.3-0.3-4.6-0.4-6.9l-0.4-6.4c-0.1-1.8-0.2-3.5-0.3-5.3    c-0.2-3.2-0.3-6.2-0.4-9.1c-4.5-1.5-12.1-3.9-20-6.5c-3.4-1.1-7-2.2-10.8-3.5c-27.1-8.7-61.8-20-89.7-30.6    c-39.3-14.9-79.7-24.2-111.4-25.7c0.5,9.6,1.1,18.4,2.1,29.2c0.9,9.3-5.4,17.5-14.5,19.2c-2,0.4-4.1,0.8-6.1,1.1    c-2.7,0.5-5.5,0.9-8.6,1.4c-10.6,1.6-21.7,3-32.9,4.1c-42.1,4-76.7,3.6-107.7,2.4c-3.4,5.4-9.3,8.9-16,8.9h-40.9    c-5.2,0-9.8-2.9-12.1-7.6c-0.7-1.5-1.1-3-1.3-4.6c-4.3-0.2-8.3-0.3-12.2-0.5c-10.7-0.4-20.8-0.6-31.1-0.8    C383.7,454,377.8,454,371.8,454z M685.8,603.2C685.8,603.2,685.8,603.2,685.8,603.2C685.8,603.2,685.8,603.2,685.8,603.2z"/></g><g><path d="M99.1,599v-15c16.5,0,30-13.4,30-30v-10.2c0-2.1-1.7-3.8-3.8-3.8H89.8v-15h35.5c10.4,0,18.8,8.4,18.8,18.8V554    C144.1,578.8,123.9,599,99.1,599z"/></g><g><path d="M600.3,611.2l-12.9-7.6c3.2-5.4,6.5-10.8,9.6-16c25.8-42.5,50.2-82.7,46.4-143.8l15-0.9c4,65.8-22.7,109.8-48.6,152.5    C606.7,600.6,603.5,605.9,600.3,611.2z"/></g><g><path d="M411.1,611.8c-19.4-105.6-21-129.7,3.9-169.4l12.7,8c-21.3,33.9-21.5,51.7-1.9,158.7L411.1,611.8z"/></g><g><path d="M911.3,435.3c-1.2,0-2.5-0.1-3.7-0.4l-27.7-5.3c-3.6-0.7-6.4-3.3-7.4-6.9c-1-3.5,0.2-7.2,2.9-9.6l10.9-9.5    c3.3-2.9,7.5-4.6,11.9-4.7l35-1.2c3.5-0.1,6.6,1.8,8.1,4.9c1.5,3.1,1,6.7-1.1,9.3l0,0l-13.7,16.3    C922.6,432.7,917,435.3,911.3,435.3z M893.7,417l16.7,3.2c1.7,0.3,3.4-0.3,4.5-1.6l4.6-5.5l-20.8,0.7c-0.9,0-1.8,0.4-2.5,1    L893.7,417z"/></g><g><rect x="867.9" y="430" transform="matrix(0.6192 -0.7853 0.7853 0.6192 -6.827 860.9932)" width="32.6" height="15"/></g><g><path d="M438.2,454l-8.4-12.4c27-18.4,44.3-28.6,66.4-39.1c-0.7-2.1-1.3-4.2-2-6.2c-35.3,12.1-68.7,31.4-96.9,55.9l-9.8-11.3    c30.9-26.9,67.7-47.7,106.6-60.3c2.6-0.9,5.4-0.6,7.9,0.6c2.4,1.3,4.2,3.4,5.1,6c1.6,4.8,3.1,9.7,4.7,14.7    c1.6,4.9-0.8,10.3-5.5,12.5C483.1,425.1,466,435.1,438.2,454z"/></g><g><path d="M601.2,457.1L609,402c1.4-10.1,10.2-17.7,20.4-17.7c11.4,0,20.6,9.3,20.6,20.6v46.3l-6.3,1c-10.6,1.6-21.7,3-32.9,4.1    L601.2,457.1z M629.4,399.3c-2.8,0-5.2,2.1-5.5,4.8l-5.1,36.2c5.5-0.6,10.9-1.3,16.2-2.1v-33.4C635,401.8,632.5,399.3,629.4,399.3    z"/></g><g><rect x="333" y="490.6" width="70.8" height="15"/></g><g><rect x="587.2" y="472.1" width="35.5" height="15"/></g><g><rect x="900.9" y="546.1" width="24.5" height="15"/></g><g><path d="M919.6,507.4h-25.3c-8.9,0-17.5-3.3-24-9.4l-11.1-10.3c-2.4-2.3-3.2-5.7-2-8.8c1.2-3.1,4.1-5,7.4-5h53.3l0.7,13.5    c0.1,2.3,0.3,4.6,0.4,6.9c0.1,1.8,0.2,3.5,0.3,5.3L919.6,507.4z M882.9,488.9c3.4,2.3,7.3,3.5,11.4,3.5h9.6    c-0.1-1.2-0.1-2.3-0.2-3.5H882.9z"/></g><g><path d="M487,467.6h-40.9c-5.2,0-9.8-2.9-12.1-7.6c-2.2-4.7-1.6-10.1,1.6-14.2l9.1-11.4c7.5-9.4,18.7-14.7,30.8-14.7H487    c10.4,0,18.8,8.4,18.8,18.8v10.2c0,0.6,0,1.2-0.1,1.9c-0.1,0.7-0.2,1.2-0.3,1.8C503.7,461.2,496,467.6,487,467.6z M447.4,455.2    L447.4,455.2C447.3,455.2,447.3,455.2,447.4,455.2z M449.4,452.6H487c1.8,0,3.4-1.3,3.7-3.1c0-0.1,0-0.3,0.1-0.4    c0-0.1,0-0.2,0-0.3v-10.2c0-2.1-1.7-3.8-3.8-3.8h-11.5c-7.4,0-14.4,3.3-19.1,9.1L449.4,452.6z"/></g></g></svg>