<?xml version="1.0" encoding="utf-8"?>
<!-- Svg Vector Icons : http://www.onlinewebfonts.com/icon -->
<!DOCTYPE svg PUBLIC "-//W3C//DTD SVG 1.1//EN" "http://www.w3.org/Graphics/SVG/1.1/DTD/svg11.dtd">
<svg version="1.1" xmlns="http://www.w3.org/2000/svg" xmlns:xlink="http://www.w3.org/1999/xlink" x="0px" y="0px" viewBox="0 0 256 256" enable-background="new 0 0 256 256" xml:space="preserve">
<metadata> Svg Vector Icons : http://www.onlinewebfonts.com/icon </metadata>
<g><g><g><path fill="#000000" d="M110.7,96.6c-5,2.7-15.4,7.1-26.4,11.2c-9.3,3.4-11.1,3.9-16.4,3.9c-15.3,0-33.6,5.7-51.2,16.2l-6.6,3.9v4.7c0,5.4,2.4,10.8,5.4,12.2c2,1,15.1,2.5,21.3,2.5h3.7l-0.8-2.1c-1.1-2.8-1-10.3,0.2-13.7c4.3-13.3,20.1-19.1,32.3-12c8.2,4.8,12.6,15.5,10,24.1l-1.1,3.6h52.7h52.7l-1.1-3.3c-2.3-6.5,0.5-16.5,6-21.5c4.7-4.3,9.2-6,15.4-5.9c9,0,16.1,4.6,20,13.1c1.6,3.6,1.8,4.9,1.5,10.5c-0.2,3.8-0.1,6.4,0.4,6.4c2.4,0,11.9-3.4,13.3-4.8c2.5-2.4,3.2-3.8,4-8.7c1-5.8,0.2-10.1-1.6-10.1c-1.1,0-1.4-0.5-1.4-2c0-1.1-0.5-4.3-1.2-7.2c-0.9-3.9-1.7-5.6-3-6.5c-3-1.9-14.2-3.3-33.8-4.1c-12.5-0.5-21.1-1.3-26.2-2.3c-9.9-2-21.5-3.8-23.9-3.8c-1.6,0-2.4,0.8-4,4.2c-1.7,3.5-2.4,4.2-4.9,4.9c-5.2,1.4-17.7,2.4-34.3,2.7c-13.5,0.4-16.2,0.2-14.6-0.5c1.1-0.5,6.7-3.1,12.5-5.7c10-4.4,10.6-4.9,10.9-7c0.2-1.6-0.2-2.5-1.5-3.4C116.2,94.5,114.3,94.6,110.7,96.6z M15.6,139.3c0.7,2.1,1.2,3.9,1.2,4s-1,0.2-2.2,0.2c-2,0-2.2-0.2-2.7-3.5c-0.3-2.3-0.2-4,0.5-4.6C13.5,134,14.1,134.7,15.6,139.3z M29.8,143.3l-0.1,2.9l-1.8-2.1c-2.1-2.4-1.9-3.6,0.5-3.6C29.5,140.5,29.8,141,29.8,143.3z"/><path fill="#000000" d="M51.6,126.4c-7.8,4.1-11.4,13.1-8.8,22c1.2,4.2,7.5,10.5,11.7,11.7c12.4,3.6,23.9-4.8,23.9-17.5c-0.1-10.9-7.4-18.2-18.4-18.1C56.4,124.6,54.3,125.1,51.6,126.4z M66.2,131.4c5.5,2.8,8.1,9.3,6.2,15.4c-1.3,4-6.1,7.9-10.1,8.5c-9,1.4-16.8-7.3-14.4-15.8C50.4,131.5,58.9,127.7,66.2,131.4z"/><path fill="#000000" d="M196.9,127c-10.6,6.4-12.2,19.7-3.5,28.4c6.2,6.2,14.7,7.4,22.2,3c5.9-3.4,8.7-8.6,8.8-15.6c0.2-10.6-7.5-18.2-18.4-18.2C201.7,124.5,200.5,124.9,196.9,127z M211.9,131.1c3.8,1.9,6.5,5.8,6.9,10.2c0.5,4.7-0.8,7.6-4.4,10.9c-7.1,6.4-18,2.9-20.6-6.6C191.1,135.5,202.2,126.5,211.9,131.1z"/></g></g></g>
</svg>