<svg xmlns="http://www.w3.org/2000/svg" xmlns:xlink="http://www.w3.org/1999/xlink" version="1.1" x="0px" y="0px" viewBox="0 0 110 137.5" enable-background="new 0 0 110 110" xml:space="preserve"><g><path d="M21.164,55.966c-5.021,0-9.092,4.07-9.092,9.092s4.071,9.092,9.092,9.092s9.092-4.07,9.092-9.092   S26.186,55.966,21.164,55.966z M21.164,69.316c-2.352,0-4.259-1.906-4.259-4.259s1.907-4.259,4.259-4.259s4.259,1.906,4.259,4.259   S23.516,69.316,21.164,69.316z"/><path d="M85.664,55.966c-5.021,0-9.092,4.07-9.092,9.092s4.07,9.092,9.092,9.092s9.093-4.07,9.093-9.092   S90.686,55.966,85.664,55.966z M85.664,69.316c-2.352,0-4.259-1.906-4.259-4.259s1.907-4.259,4.259-4.259s4.259,1.906,4.259,4.259   S88.016,69.316,85.664,69.316z"/><path d="M107.934,59.775c0-0.227,0.265-1.361,0.228-1.779c-0.037-0.416-1.06-2.232-1.247-2.27s-0.04-2.271-0.002-3.595   s-0.605-1.93-0.605-1.93s-0.038-0.983-0.151-1.665l-0.263-1.574c0-0.207-2.44-1.714-2.44-1.714l-4.985-5.037l1.143-0.675   l-0.467-0.728c0,0-0.208,0-1.039,0.104c-0.033,0.004-0.059,0.008-0.079,0.012c-0.083-0.084-1.054-0.367-6.879-1.103   c-9.451-1.194-27.265-1.973-28.304-1.973s-8.152,0.312-10.956,0.883s-10.125,3.738-11.216,4.361s-9.665,5.144-9.665,5.144   s-5.712,0.416-12.047,1.246S8.676,49.509,7.793,49.873s-2.804,1.402-2.908,1.714s-0.675,2.597-0.883,3.012   s-1.454,2.597-1.454,2.597l0.016,2.391l0.509,0.758l0.038,2.271l-0.378,0.605c0,0-0.378-0.531,0,1.324   c0.378,1.854,2.99,2.535,2.99,2.535l3.179,0.379l0.189,0.68l1.635-0.014c-0.276-0.947-0.432-1.948-0.432-2.986   c0-5.881,4.768-10.649,10.649-10.649s10.649,4.768,10.649,10.649c0,0.977-0.142,1.916-0.388,2.814l0.365-0.004h21.305h22.473   c-0.245-0.896-0.387-1.836-0.387-2.811c0-5.881,4.768-10.649,10.648-10.649c5.882,0,10.649,4.768,10.649,10.649   c0,0.748-0.078,1.477-0.225,2.18l2.705-0.088c0,0,3.292-0.379,4.654-0.568s2.232-0.643,3.178-1.514   c0.945-0.869,1.594-3.746,1.594-3.746S107.934,60.002,107.934,59.775z M32.191,47.14c1.203-0.635,8.478-4.474,9.479-5.045   c1.091-0.623,8.413-3.79,11.216-4.361s9.917-0.883,10.956-0.883c0.123,0,0.487,0.011,1.04,0.033l-6.441,9.266L32.191,47.14z    M85.19,45.14l-24.639,0.93l6.081-9.113c4.896,0.22,15.124,0.77,22.562,1.532L85.19,45.14z"/></g></svg>