<svg xmlns="http://www.w3.org/2000/svg" xmlns:xlink="http://www.w3.org/1999/xlink" version="1.1" x="0px" y="0px" viewBox="247.6 370.9 100 125" enable-background="new 247.6 370.9 100 100" xml:space="preserve"><path fill="#000000" d="M337.1,431H336v-4.3h-0.4c0.2-15.2-0.7-17.4-0.7-17.4h0.3v-2.5l-0.4-0.3c0-3.2-1.9-3-1.9-3s-27.7,0.1-39.7,0  c-12-0.1-12.4,2.4-12.4,2.4l-9.8,10c-0.8-0.1-0.7-0.3-7.3,2.5c-6.5,2.8-5.8,8.2-5.8,8.2c0.6,0,0.8,0.8,0.8,0.8s0.1,0.5-0.1,1.3  c-0.1,0.8-0.7,0.8-0.7,0.8v0.5c0.9,3.4,9.2,2.9,9.2,2.9v-0.5l1.3,0c0,0,0,0.1,0,0.1c0,3.1,2.5,5.6,5.6,5.6c3.1,0,5.5-2.4,5.6-5.5  l1.1,0v0.4h0.8l1.7-0.6l30.8,0.3l0.6-0.6l0.8,0c0,0.1,0,0.3,0,0.4c0,3.1,2.5,5.6,5.6,5.6c3.1,0,5.6-2.5,5.6-5.6c0-0.1,0-0.2,0-0.2  l0.2,0c0,0,0.4-0.4,0.7,0.1c0.3,0.5,1.6,0.3,1.6,0.3s2.9,0,3.8,0s2.1-0.8,2.1-0.8h1.8C337.9,431.4,337.1,431,337.1,431z   M273.8,436.5c-2,0-3.7-1.7-3.7-3.7c0-2,1.7-3.7,3.7-3.7c2,0,3.7,1.7,3.7,3.7C277.5,434.8,275.9,436.5,273.8,436.5z M281.4,417.6  h-3.2c0,0-2.6-1.3-0.1-5.2c0,0,0-0.1,0-0.1v0c0,0,0,0,0,0c0,0,0,0,0,0l4.2-4.6L281.4,417.6z M279.4,410.6  C279.3,410.6,279.3,410.6,279.4,410.6C279.3,410.6,279.3,410.6,279.4,410.6z M279.3,410.7c-0.2,0.4-0.7,1.1-1,1.5  C278.8,411.4,279.1,410.9,279.3,410.7z M291.7,407.5c0,0-0.1,5-0.3,6.8c-0.2,1.8-1.7,1.7-1.7,1.7l-2.7,0.2c-2.5,0.1-5,1.2-5,1.2  l1-9.9c0.2-0.2,1.3-0.5,1.3-0.5c1.1-0.3,5.3-0.4,6.4-0.4C291.8,406.6,291.7,407.5,291.7,407.5z M311.5,415.1c0,0.4-0.3,0.8-0.8,0.8  h-15.6c-0.4,0-0.8-0.3-0.8-0.8v-7.9c0-0.4,0.3-0.8,0.8-0.8h15.6c0.4,0,0.8,0.3,0.8,0.8V415.1z M321,436.5c-2,0-3.7-1.7-3.7-3.7  c0-2,1.7-3.7,3.7-3.7c2,0,3.7,1.7,3.7,3.7C324.7,434.8,323.1,436.5,321,436.5z M331.2,415.1c0,0.4-0.3,0.8-0.8,0.8h-15.6  c-0.4,0-0.8-0.3-0.8-0.8v-7.9c0-0.4,0.3-0.8,0.8-0.8h15.6c0.4,0,0.8,0.3,0.8,0.8V415.1z"/></svg>