<svg xmlns="http://www.w3.org/2000/svg" xmlns:xlink="http://www.w3.org/1999/xlink" version="1.1" x="0px" y="0px" viewBox="0 0 100 125" style="enable-background:new 0 0 100 100;" xml:space="preserve"><path d="M73.8042,53.93109c-2.05347,0-3.72406,1.67059-3.72406,3.72382c0,2.05377,1.67059,3.7243,3.72406,3.7243  c2.05322,0,3.72382-1.67053,3.72382-3.7243C77.52802,55.60168,75.85742,53.93109,73.8042,53.93109z M73.8042,60.2677  c-1.44043,0-2.61249-1.17236-2.61249-2.61279c0-1.44049,1.17206-2.61224,2.61249-2.61224c1.44049,0,2.61224,1.17175,2.61224,2.61224  C76.41644,59.09534,75.24469,60.2677,73.8042,60.2677z"/><rect x="29.69592" y="45.77362" width="0.55579" height="7.04596"/><path d="M21.8692,53.93109c-2.05347,0-3.72406,1.67059-3.72406,3.72382c0,2.05377,1.67059,3.7243,3.72406,3.7243  c2.05322,0,3.72382-1.67053,3.72382-3.7243C25.59302,55.60168,23.92242,53.93109,21.8692,53.93109z M21.8692,60.2677  c-1.44043,0-2.61249-1.17236-2.61249-2.61279c0-1.44049,1.17206-2.61224,2.61249-2.61224c1.44049,0,2.61224,1.17175,2.61224,2.61224  C24.48145,59.09534,23.30969,60.2677,21.8692,60.2677z"/><path d="M90.59143,43.54724l-37.7951-0.01031v-8.07336l-6.92084,0.04614  c-0.99622,0.00598-1.6543,0.00977-2.56586,0.05048c-2.48224,0.11072-3.72839,0.16608-5.02991,0.55469  c-1.23199,0.36853-2.14142,0.87329-3.71429,1.86542c-2.09094,1.3194-4.19214,2.77399-6.24866,4.32568  c-1.60437,0.25348-3.22418,0.46246-4.81738,0.62146c-1.00763,0.1004-9.91766,1.03125-12.46777,2.72949  c-0.76501,0.50964-1.15253,1.1886-1.19427,1.26459c-0.44537,0.80981-0.43231,1.59351-0.42743,1.89691  c0.01166,0.67407,0.00867,1.93274,0.00488,3.63586c-0.00299,1.25592-0.00623,2.75226-0.00488,4.43317l0.00055,0.73273  l5.61206,0.72168c0.34589,3.47296,3.28424,6.19452,6.84668,6.19452c3.51166,0,6.41205-2.64587,6.82556-6.04779h38.28363  c0.41357,3.40192,3.31421,6.04779,6.82581,6.04779c3.74438,0,6.79376-3.00775,6.87372-6.73334l9.8728-1.37097L90.59143,43.54724z   M88.90149,50.63391l-0.8363-0.0011l0.00269-3.71509h0.8454L88.90149,50.63391z M11.07709,48.79224l2.24817,0.17816  c0.27411,0.21545,0.96613,0.84613,0.94226,1.71289c-0.00543,0.19324-0.04456,0.38428-0.11646,0.57098h-3.06653  C11.0863,50.14673,11.08569,49.30847,11.07709,48.79224z M21.8692,62.86908c-2.87518,0-5.21417-2.33923-5.21417-5.21417  s2.33899-5.21417,5.21417-5.21417c2.87494,0,5.21393,2.33923,5.21393,5.21417S24.74414,62.86908,21.8692,62.86908z   M73.8042,62.86908c-2.87518,0-5.21417-2.33923-5.21417-5.21417s2.33899-5.21417,5.21417-5.21417  c2.87494,0,5.21393,2.33923,5.21393,5.21417S76.67914,62.86908,73.8042,62.86908z M80.5127,56.14313  c-0.69141-3.06866-3.43402-5.36975-6.7085-5.36975c-3.5116,0-6.41223,2.64594-6.82581,6.04785H28.69476  c-0.41351-3.40192-3.3139-6.04785-6.82556-6.04785c-3.45801,0-6.3205,2.56683-6.80219,5.89362l-3.99005-0.51331  c0-1.38348,0.00269-2.6264,0.00513-3.69562c0.00006-0.03296,0.00012-0.05963,0.00018-0.09222h3.73749l0.16064-0.27789  c0.25104-0.4353,0.38507-0.89716,0.39807-1.37427c0.04504-1.63477-1.38019-2.63776-1.54272-2.74683l-0.12079-0.08087  l-2.39758-0.18994c0.05243-0.08417,0.2655-0.40283,0.63879-0.65186c1.86761-1.24347,9.08533-2.19598,11.70874-2.45813  c1.69391-0.16876,3.41687-0.39294,5.12079-0.66595l0.20544-0.03308l0.16608-0.12592  c2.07166-1.57074,4.19055-3.04102,6.29779-4.37073c1.63391-1.0307,2.34387-1.39111,3.30206-1.67767  c1.10425-0.32996,2.28143-0.38208,4.62695-0.48737c0.87921-0.03906,1.48981-0.04236,2.50153-0.04834l5.24347-0.03473v8.06201  l37.78961,0.01031l-0.00189,0.59155h-1.95984l-0.00354,5.3808l0.00134,0.55524l1.94324,0.00317l-0.01025,3.23431L80.5127,56.14313z"/><rect x="49.4259" y="45.77362" width="0.55573" height="7.04596"/><path d="M47.87335,37.88312L47.32819,37.875c-1.24213-0.01788-2.50726-0.00323-3.76044,0.04669  c-2.05322,0.08191-3.12866,0.15198-4.11597,0.43854c-1.41168,0.41028-2.31396,1.03284-3.68036,1.97504  c-1.01819,0.70233-2.28552,1.57672-3.96802,3.33411l-0.90015,0.94006h16.99615L47.87335,37.88312z M33.55377,43.49786  c1.13568-1.06598,2.03528-1.68634,2.84888-2.2475c1.43207-0.98779,2.17316-1.47791,3.35931-1.82312  c0.86951-0.25238,1.88879-0.31696,3.84998-0.39508c1.04968-0.04181,2.10724-0.06079,3.15424-0.05157l0.01733,4.51727H33.55377z"/><rect x="29.16266" y="54.86084" width="36.77551" height="0.55579"/></svg>