<svg xmlns:dc="http://purl.org/dc/elements/1.1/" xmlns:cc="http://creativecommons.org/ns#" xmlns:rdf="http://www.w3.org/1999/02/22-rdf-syntax-ns#" xmlns:svg="http://www.w3.org/2000/svg" xmlns="http://www.w3.org/2000/svg" xmlns:sodipodi="http://sodipodi.sourceforge.net/DTD/sodipodi-0.dtd" xmlns:inkscape="http://www.inkscape.org/namespaces/inkscape" version="1.1" x="0px" y="0px" viewBox="0 0 100 125"><g transform="translate(0,-952.36218)"><path style="text-indent:0;text-transform:none;direction:ltr;block-progression:tb;baseline-shift:baseline;color:#000000;enable-background:accumulate;" d="m 88.593749,977.36219 -50.28125,0.062 c -4.04195,0 -8.04001,3.48159 -12.1875,7.77629 -4.11746,4.2642 -8.33304,9.4692 -12.25,13.3979 -6.05759,2.13702 -9.375,6.37102 -9.375,10.74332 l 0,7.0581 c 0,1.6101 0.2743,2.9031 1.1875,3.8101 0.9132,0.9069 2.21818,1.1867 3.84375,1.1867 l 2.03125,0 c -0.10341,-0.6872 -0.0469,-1.3594 0,-1.9987 l -2.03125,0 c -1.40564,0 -2.0929,-0.2509 -2.4375,-0.5934 -0.3446,-0.3404 -0.59375,-1.0162 -0.59375,-2.4042 l 0,-2.9982 9.09375,0 c 1.15643,-0.6562 2.49287,-1.0305 3.90625,-1.0305 1.41338,0 2.74982,0.3743 3.90625,1.0305 l 51.1875,0 c 1.15643,-0.6562 2.49287,-1.0305 3.90625,-1.0305 1.41338,0 2.74982,0.3743 3.90625,1.0305 l 11.093752,0 0,2.9357 c 0,1.3811 -0.22703,2.07 -0.5625,2.4048 -0.33547,0.3341 -1.02517,0.5933 -2.46875,0.5933 l -4.031252,0 c 0.10221,0.692 0.0504,1.355 0,1.9988 l 4.031252,0 c 1.65849,0 2.96372,-0.2783 3.875,-1.1868 0.91128,-0.9085 1.15625,-2.2179 1.15625,-3.8101 l 0,-33.91632 c 0,-4.01029 -2,-5.00959 -6.906252,-5.05929 z m 0,1.9987 c 3.906252,0.0497 4.906252,1.04909 4.906252,3.06059 l 0,21.95512 c -1,0.018 -1,1.0305 -1,1.0305 l 0,1.9988 c 5e-5,0.5233 0.47642,0.9993 1,0.9994 l 0,2.9981 -52.000002,0 c 5.6e-4,-8.3327 0,-16.65382 0,-24.98462 -5e-5,-0.5232 -0.47642,-0.9992 -1,-0.9993 -2.05348,0 -4.14963,0 -6.1875,0 -0.20388,0.045 -0.39263,0.1562 -0.53125,0.3123 l -15,15.99002 c -0.53184,0.5616 -0.055,1.6805 0.71875,1.6864 l 13,0 c 0.15283,-0.01 0.3038,-0.051 0.4375,-0.1249 l 6.5625,-3.2792 0,11.3991 -33,0 0,-2.0612 c 0,-3.4459 2.5971,-7.0905 8.3125,-8.9944 0.15286,-0.049 0.29353,-0.1356 0.40625,-0.2498 4.05893,-4.05642 8.28836,-9.29192 12.34375,-13.49162 4.05539,-4.1997 7.9804,-7.18299 10.75,-7.18299 z m -42.28125,6.05879 c -0.4584,0.088 -0.82072,0.533 -0.8125,0.9993 l 0,15.99002 c 5e-5,0.5233 0.47642,0.9993 1,0.9994 l 10,0 c 0.52358,-10e-5 0.99995,-0.4761 1,-0.9994 l 0,-15.99002 c -5e-5,-0.5232 -0.47642,-0.9992 -1,-0.9993 -3.38833,0 -6.81416,0 -10.1875,0 z m 16,0 c -0.4584,0.088 -0.82072,0.533 -0.8125,0.9993 l 0,15.99002 c 5e-5,0.5233 0.47642,0.9993 1,0.9994 l 10,0 c 0.52358,-10e-5 0.99995,-0.4761 1,-0.9994 l 0,-15.99002 c -5e-5,-0.5232 -0.47642,-0.9992 -1,-0.9993 -3.38833,0 -6.81416,0 -10.1875,0 z m 16,0 c -0.4584,0.088 -0.82072,0.533 -0.8125,0.9993 l 0,15.99002 c 5e-5,0.5233 0.47642,0.9993 1,0.9994 l 10,0 c 0.52358,-10e-5 0.99995,-0.4761 1,-0.9994 l 0,-15.99002 c -5e-5,-0.5232 -0.47642,-0.9992 -1,-0.9993 -3.38833,0 -6.81416,0 -10.1875,0 z m -43.40625,1.9987 4.59375,0 0,10.3685 -7.25,3.62272 -10.46875,0 z m 12.59375,0 8,0 0,13.99122 -8,0 z m 16,0 8,0 0,13.99122 -8,0 z m 16,0 8,0 0,13.99122 -8,0 z m -65,16.98942 c -1.66667,0.3331 -3.6875,0.281 -4.6875,1.2804 -1,0.9993 -1.3125,2.7171 -1.3125,3.7164 3,0 6,-1.9987 6,-4.9968 z m 5,8.9943 c -3.85415,0 -7,3.144 -7,6.9957 0,3.8517 3.14585,6.9644 7,6.9644 3.85415,0 7,-3.1127 7,-6.9644 0,-3.8517 -3.14585,-6.9957 -7,-6.9957 z m 59,0 c -3.85415,0 -7,3.144 -7,6.9957 0,3.8517 3.14585,6.9644 7,6.9644 3.85415,0 7,-3.1127 7,-6.9644 0,-3.8517 -3.14585,-6.9957 -7,-6.9957 z m -59,1.9676 c 2.77327,0 5,2.2565 5,5.0281 0,2.7715 -2.22673,4.9968 -5,4.9968 -2.77327,0 -5,-2.2253 -5,-4.9968 0,-2.7716 2.22673,-5.0281 5,-5.0281 z m 59,0 c 2.77327,0 5,2.2565 5,5.0281 0,2.7715 -2.22673,4.9968 -5,4.9968 -2.77327,0 -5,-2.2253 -5,-4.9968 0,-2.7716 2.22673,-5.0281 5,-5.0281 z m -7.9375,3.9662 -43.125,0.062 c 0.10339,0.6874 0.047,1.3592 0,1.9987 l 43.125,-0.062 c -0.10491,-0.6829 -0.0439,-1.3643 0,-1.9988 z" fill="#000000" fill-opacity="1" stroke="none" marker="none" visibility="visible" display="inline" overflow="visible"/></g></svg>