<svg xmlns="http://www.w3.org/2000/svg" xmlns:xlink="http://www.w3.org/1999/xlink" version="1.1" x="0px" y="0px" viewBox="0 0 100 125" style="enable-background:new 0 0 100 100;" xml:space="preserve"><path d="M72.02472,52.75739c-2.0329,0-3.68665,1.65381-3.68665,3.6864c0,2.03308,1.65375,3.68683,3.68665,3.68683  c2.03284,0,3.68658-1.65375,3.68658-3.68683C75.7113,54.41119,74.05756,52.75739,72.02472,52.75739z M72.02472,59.0191  c-1.41986,0-2.57507-1.15552-2.57507-2.57532c0-1.41986,1.15521-2.57483,2.57507-2.57483c1.4198,0,2.57507,1.15497,2.57507,2.57483  C74.59979,57.86359,73.44452,59.0191,72.02472,59.0191z"/><path d="M26.75952,52.75739c-2.03284,0-3.68658,1.65381-3.68658,3.6864c0,2.03308,1.65375,3.68683,3.68658,3.68683  c2.0329,0,3.68665-1.65375,3.68665-3.68683C30.44617,54.41119,28.79242,52.75739,26.75952,52.75739z M26.75952,59.0191  c-1.4198,0-2.57507-1.15552-2.57507-2.57532c0-1.41986,1.15527-2.57483,2.57507-2.57483c1.41986,0,2.57507,1.15497,2.57507,2.57483  C29.33459,57.86359,28.17938,59.0191,26.75952,59.0191z"/><path d="M88.02655,45.11932c-1.3642-1.16309-2.7984-2.27734-4.26331-3.31183  c-1.39948-0.98779-2.85754-1.92407-4.33411-2.78375l-0.14435-0.08362l-0.16553-0.02222  c-3.63806-0.48199-7.30267-0.84619-10.89215-1.08228c-2.26031-0.14868-4.59625-0.30176-7.73767-0.27948  c-1.74493,0.013-4.38165,0.03253-7.76569,0.42224c-2.33191,0.26868-4.66895,0.67139-6.94659,1.19678l-0.07898,0.02277  c-2.56586,0.86566-5.11676,1.87305-7.58191,2.99487c-1.71021,0.77832-3.41473,1.62823-5.06952,2.52704  c-2.14197,0.08795-4.29315,0.27466-6.3974,0.55469c-3.05457,0.40759-6.21283,0.82935-10.04083,2.26923  c-1.37341,0.51727-2.72217,1.12347-4.00928,1.80359l-0.38239,0.2019l-0.53595,4.17914l1.09064,5.32977h8.59338  c0.97418,2.00165,3.02289,3.38782,5.39459,3.38782c2.37177,0,4.42041-1.38617,5.39459-3.38782h34.47601  c0.97418,2.00165,3.02283,3.38782,5.39459,3.38782c2.39972,0,4.46912-1.41888,5.42889-3.45886l10.08527-1.3786l0.77399-6.23077  l0.00623-6.00873L88.02655,45.11932z M86.65173,48.5481c-0.76978-0.1759-1.51184-0.44763-2.21301-0.81921  c-0.47003-0.24915-0.9151-0.5379-1.33191-0.86353h3.54492V48.5481z M13.76013,50.62305  c1.33734-0.43799,2.70392-0.64819,4.08667-0.59729c0.22034,0.00867,0.44128,0.02332,0.66187,0.04449  c-0.49768,0.29474-1.01031,0.56445-1.53381,0.80597c-1.08423,0.50061-2.22406,0.87769-3.39331,1.1394L13.76013,50.62305z   M26.75952,60.77869c-2.39026,0-4.3349-1.94464-4.3349-4.3349c0-2.39032,1.94464-4.33496,4.3349-4.33496  s4.33496,1.94464,4.33496,4.33496C31.09448,58.83405,29.14978,60.77869,26.75952,60.77869z M72.02472,60.77869  c-2.39026,0-4.33496-1.94464-4.33496-4.3349c0-2.39032,1.9447-4.33496,4.33496-4.33496s4.3349,1.94464,4.3349,4.33496  C76.35962,58.83405,74.41498,60.77869,72.02472,60.77869z M86.04254,56.13007l-8.07373,1.10364  c0.0343-0.25916,0.05817-0.52155,0.05817-0.78992c0-3.30969-2.69263-6.00226-6.00226-6.00226  c-3.30969,0-6.00226,2.69257-6.00226,6.00226c0,0.323,0.03284,0.63776,0.08221,0.94708H32.67957  c0.04938-0.30933,0.08221-0.62408,0.08221-0.94708c0-3.30969-2.69257-6.00226-6.00226-6.00226  c-3.30963,0-6.00226,2.69257-6.00226,6.00226c0,0.323,0.03284,0.63776,0.08221,0.94708h-6.70721l-0.76233-3.72546l0.06171-0.48096  c1.38385-0.27777,2.73212-0.70959,4.00891-1.29871c1.0155-0.46893,1.99219-1.03552,2.90314-1.68469l1.01715-0.72455  l-1.21899-0.27081c-0.74091-0.16449-1.49884-0.26215-2.25323-0.29041c-0.05359-0.00208-0.10687,0.00366-0.1604,0.00232  c3.41443-1.21686,6.3266-1.61432,9.14148-1.98987c2.11646-0.28223,4.28204-0.46729,6.43646-0.54926l0.19592-0.00757l0.17206-0.09393  c1.67328-0.91449,3.40009-1.77802,5.13275-2.56665c2.40143-1.09253,4.88611-2.07489,7.38519-2.91943  c2.20435-0.50745,4.466-0.89606,6.72223-1.15601c3.29529-0.37939,5.87823-0.39893,7.58759-0.41144  c3.07904-0.02551,5.38489,0.12866,7.6156,0.27625c3.49854,0.23016,7.06952,0.58295,10.61694,1.04913  c1.38538,0.81195,2.75305,1.69342,4.06708,2.62097c1.15216,0.81342,2.27777,1.68457,3.37054,2.58398h-5.77844l0.87872,0.93628  c0.76691,0.81683,1.65698,1.49689,2.64587,2.02118c0.86279,0.45679,1.78027,0.77899,2.73352,0.97186v1.54053L86.04254,56.13007z"/><path d="M53.99384,40.02344c-3.20819,0.19647-6.34882,0.87494-9.33472,2.01526  c-2.29529,0.87653-4.49237,2.02661-6.52954,3.41821l-1.51996,1.03827l1.84045-0.02332  c2.61823-0.03369,5.25787-0.11182,7.8457-0.2323c2.26892-0.10529,4.565-0.24585,6.82446-0.41791l0.41931-0.03204l1.17639-5.81067  L53.99384,40.02344z M52.61688,44.74481c-2.11292,0.15686-4.25464,0.28607-6.37268,0.38428  c-1.92896,0.09009-3.88635,0.15631-5.84241,0.19757c1.48602-0.88141,3.04504-1.63477,4.65405-2.24915  c2.6554-1.0144,5.43805-1.64996,8.2818-1.89148L52.61688,44.74481z"/><path d="M66.23901,39.99036c-1.9118-0.18616-3.85675-0.28058-5.78162-0.28058c-0.00519,0-0.01031,0-0.0155,0  c-1.35492,0.00055-2.72321,0.04773-4.06732,0.14001l-0.46814,0.03253l-0.57367,5.73798l0.64233-0.02936  c1.99164-0.09064,3.99164-0.18719,6.00061-0.28925c1.96234-0.09985,3.9165-0.20465,5.86145-0.31317l0.78424-0.0434l-2.05103-4.92273  L66.23901,39.99036z M61.91931,44.19122c-1.79108,0.09119-3.57513,0.17804-5.35236,0.25995l0.35199-3.5224  c1.16772-0.07111,2.35065-0.10693,3.5235-0.10748c0.00488,0,0.00977,0,0.01495,0c1.77802,0,3.57373,0.08197,5.34332,0.24426  l1.19025,2.85699C65.30713,44.01538,63.61621,44.10492,61.91931,44.19122z"/><path d="M75.93494,41.5871c-1.57178-0.59644-2.86871-0.82983-3.8158-1.00024  c-0.97723-0.17584-1.97937-0.29907-2.97858-0.36639l-0.92841-0.06238l2.15692,4.74469l0.36444-0.00598  c0.98047-0.01685,1.97125-0.04016,2.97101-0.06946c1.09497-0.03259,2.17828-0.07111,3.24915-0.11615l0.18561-0.00763  l1.92896-1.58209l-0.70721-0.39893C77.58789,42.28674,76.77161,41.90411,75.93494,41.5871z M76.72162,43.60834  c-1.00598,0.04175-2.02277,0.07758-3.04968,0.10742c-0.87164,0.02606-1.73627,0.04669-2.59296,0.06299l-1.07684-2.36908  c0.64563,0.06671,1.28851,0.1579,1.92029,0.27136c0.95465,0.17151,2.14276,0.38531,3.61823,0.94489  c0.52753,0.20032,1.04639,0.42773,1.55005,0.68011L76.72162,43.60834z"/><rect x="35.33984" y="48.04639" width="0.55579" height="7.71136"/><rect x="54.3056" y="46.93481" width="0.55579" height="8.26715"/><rect x="69.19562" y="46.93481" width="0.55579" height="2.15363"/></svg>
