<svg xmlns:x="http://ns.adobe.com/Extensibility/1.0/" xmlns:i="http://ns.adobe.com/AdobeIllustrator/10.0/" xmlns:graph="http://ns.adobe.com/Graphs/1.0/" xmlns="http://www.w3.org/2000/svg" xmlns:xlink="http://www.w3.org/1999/xlink" xmlns:a="http://ns.adobe.com/AdobeSVGViewerExtensions/3.0/" version="1.1" x="0px" y="0px" viewBox="0 0 64 80" enable-background="new 0 0 64 64" xml:space="preserve"><g><path d="M58.384,37.759c-1.023-3.891-6.261-7.353-9.672-7.353h-8.398h-8.322c-3.97,0-12.526,3.647-14.035,6.696   c-3.016,0.067-13.609,0.676-13.609,5.896v0.784h0.447h2.042h1.747c1.15,0,1.15,1.784,0,1.784H6.836H4.794H4.347v2.452   c0,0.493,0.399,0.892,0.893,0.892h6.742c-0.082-0.162-0.17-0.32-0.237-0.491c-0.024-0.051-0.068-0.162-0.1-0.271   c-1.423-3.552,1.659-7.413,5.302-7.413c3.758,0,6.646,3.915,5.267,7.496c-0.022,0.068-0.055,0.152-0.091,0.236   c-0.061,0.154-0.142,0.296-0.215,0.443h23.515c-0.082-0.162-0.17-0.32-0.237-0.491c-0.024-0.051-0.068-0.162-0.1-0.271   c-1.423-3.552,1.659-7.413,5.302-7.413c3.758,0,6.646,3.915,5.268,7.496c-0.023,0.068-0.056,0.152-0.092,0.236   c-0.061,0.154-0.141,0.296-0.215,0.443h3.396c0.007,0,0.014,0,0.017,0c0.562,0,0.985-0.53,0.874-1.077   C59.622,46.827,59.508,42.042,58.384,37.759L58.384,37.759z M31.1,37.094H20.146c1.819-1.667,7.132-4.449,10.953-4.854V37.094z    M39.422,37.094h-6.539v-4.904h6.539V37.094z M47.819,37.094h-6.613v-4.904h6.613V37.094z M49.604,37.094v-4.8   c2.183,0.465,5.318,2.432,6.604,4.8H49.604z"/><path d="M59.635,47.833C59.646,47.893,59.622,46.827,59.635,47.833L59.635,47.833z"/><path d="M16.946,41.626c-3.118,0-5.623,3.269-4.445,6.272c0.02,0.069,0.048,0.138,0.073,0.195c1.512,3.858,7.215,3.888,8.732,0.012   c0.03-0.069,0.059-0.138,0.067-0.176C22.548,44.92,20.098,41.626,16.946,41.626z M16.938,48.018c-2.149,0-2.151-3.344,0-3.344   C19.106,44.674,19.094,48.018,16.938,48.018z"/><path d="M50.387,41.626c-3.118,0-5.623,3.269-4.445,6.272c0.02,0.069,0.048,0.138,0.073,0.195c1.512,3.858,7.215,3.888,8.732,0.012   c0.03-0.069,0.059-0.138,0.067-0.176C55.988,44.92,53.539,41.626,50.387,41.626z M50.379,48.018c-2.149,0-2.151-3.344,0-3.344   C52.547,44.674,52.534,48.018,50.379,48.018z"/></g></svg>