<svg xmlns="http://www.w3.org/2000/svg" data-name="Layer 1" viewBox="0 0 100 125" x="0px" y="0px"><path d="M34.51,43.64h20.67v-5.95c-6.18,.12-12.89,1.7-20.67,5.95Z"/><path d="M57.29,43.64h11.59c1.81,0,3.57-.35,5.23-1.04l2.53-1.05c-.39-.11-.78-.21-1.16-.32-6-1.68-11.85-3.32-18.19-3.53v5.94Z"/><circle cx="26.67" cy="56.8" r="5.51"/><circle cx="75.19" cy="56.8" r="5.51"/><path d="M10.73,50.89c-1.17,1.81-.71,3.75-.13,5.07,.16,.35,.5,.58,.9,.6l7.56,.32s0-.05,0-.08c0-4.2,3.41-7.61,7.61-7.61s7.61,3.41,7.61,7.61c0,.24-.01,.47-.04,.71l33.34-.71s0,0,0,0c0-4.2,3.41-7.61,7.61-7.61s7.3,3.12,7.58,7.07l6.51-1.39c.34-.07,.59-.35,.63-.68,.32-2.97-.32-4.05-.6-4.38-.48-.55-.75-1.19-.77-1.85-.03-.66-.14-1.75-.34-3.13-.05-.34-.32-.61-.67-.67-2.57-.43-5.09-1.04-7.56-1.69l-5.05,2.09c-1.92,.8-3.96,1.2-6.04,1.2H30.03s0,0,0,0c-13.25,.08-17.8,2.84-19.29,5.15Z"/></svg>