<svg xmlns="http://www.w3.org/2000/svg" xmlns:xlink="http://www.w3.org/1999/xlink" version="1.1" x="0px" y="0px" viewBox="0 0 100 125" style="enable-background:new 0 0 100 100;" xml:space="preserve"><path d="M88.9624,51.79211l-0.00458-0.06781c-0.0885-1.31891-0.32373-2.63019-0.69934-3.89752  c-0.34845-1.17505-0.81903-2.31805-1.39893-3.39648l-0.2171-0.40381l-6.81042-0.49335  c-1.81982-1.21631-3.7536-2.28717-5.75146-3.18488c-1.9455-0.87378-3.97589-1.59406-6.03485-2.14111l-0.08002-0.0174  c-4.19928-0.68439-8.42047-0.96118-12.54889-0.82007c-3.77673,0.1286-6.79224,0.57697-8.9632,1.33191  c-1.85211,0.64423-3.26086,1.38885-5.59436,2.62311c-2.07874,1.09906-4.12219,2.29041-6.07635,3.54193  c-2.60681,0.19434-5.26385,0.41357-7.90106,0.6524c-1.66974,0.15143-5.14441,0.4657-8.44598,1.87354  c-0.84991,0.36261-1.94598,0.92218-2.8844,2.04132c-0.76312,0.91071-1.27222,1.9989-1.51318,3.23474l-0.01544,5.78351  l0.76172,0.06567c1.10095,0.09558,2.34143,0.1911,3.58185,0.28662c1.23218,0.09479,2.46411,0.18951,3.55859,0.2843  c0.93384,2.10413,3.03961,3.57733,5.48602,3.57733c2.44495,0,4.54938-1.47137,5.48413-3.57343h34.38837  c0.93475,2.10205,3.03918,3.57343,5.48413,3.57343c2.46985,0,4.5946-1.50024,5.51465-3.63666l10.1355-1.52704L88.9624,51.79211z   M86.6601,48.3006c0.01099,0.03711,0.01611,0.07574,0.02686,0.11292h-2.24261L84.10675,47.62l2.06732-0.71594  C86.35669,47.36243,86.52002,47.82831,86.6601,48.3006z M16.81482,50.52533h2.14154l-0.42413,0.81793h-2.26227  C16.42841,51.05408,16.60529,50.77771,16.81482,50.52533z M27.41101,60.99878c-2.39026,0-4.3349-1.9447-4.3349-4.33496  s1.94464-4.3349,4.3349-4.3349s4.33496,1.94464,4.33496,4.3349S29.80127,60.99878,27.41101,60.99878z M72.76764,60.99878  c-2.39026,0-4.3349-1.9447-4.3349-4.33496s1.94464-4.3349,4.3349-4.3349s4.33496,1.94464,4.33496,4.3349  S75.1579,60.99878,72.76764,60.99878z M86.88177,56.04779l-8.14282,1.2265c0.02039-0.20081,0.03094-0.40442,0.03094-0.61047  c0-3.30969-2.69257-6.00226-6.00226-6.00226s-6.00226,2.69257-6.00226,6.00226c0,0.25848,0.02197,0.51147,0.05383,0.76147H33.35944  c0.03186-0.25,0.05383-0.50299,0.05383-0.76147c0-3.30969-2.69257-6.00226-6.00226-6.00226  c-3.30963,0-6.00226,2.69257-6.00226,6.00226c0,0.24182,0.01855,0.47913,0.04651,0.71356  c-0.94165-0.07849-1.94208-0.15692-2.96106-0.23541c-0.95605-0.07379-1.91235-0.14709-2.80408-0.22089v-4.00983  c0.03259-0.1571,0.07849-0.30609,0.12213-0.45642h3.39569l1.57697-3.04102h-2.65442c0.32751-0.19598,0.65381-0.3573,0.95941-0.48743  c3.05945-1.30475,6.35748-1.60327,7.94226-1.74652c2.6994-0.24481,5.41962-0.46893,8.08508-0.66595l0.21136-0.01575l0.17859-0.11505  c1.96826-1.26788,4.03101-2.47388,6.13141-3.58435c2.26379-1.19727,3.63019-1.91968,5.36261-2.52216  c2.01282-0.70013,4.86328-1.11749,8.47229-1.24066c4.0058-0.13574,8.10431,0.13025,12.18359,0.79291  c1.95825,0.52271,3.88934,1.20929,5.74011,2.04022c1.97858,0.88898,3.89178,1.95551,5.68665,3.16962l0.18457,0.12482  l6.33197,0.45917c0.04297,0.08563,0.07599,0.17609,0.11749,0.26251l-3.10046,1.07483l1.09204,2.56506h3.242  c0.15833,0.74103,0.28424,1.48889,0.3382,2.24426L86.88177,56.04779z"/><path d="M72.76764,52.97748c-2.03284,0-3.68658,1.65375-3.68658,3.68634c0,2.03314,1.65375,3.68689,3.68658,3.68689  c2.0329,0,3.68665-1.65375,3.68665-3.68689C76.45428,54.63123,74.80054,52.97748,72.76764,52.97748z M72.76764,59.23914  c-1.4198,0-2.57507-1.15546-2.57507-2.57532c0-1.4198,1.15527-2.57477,2.57507-2.57477c1.41986,0,2.57507,1.15497,2.57507,2.57477  C75.34271,58.08368,74.1875,59.23914,72.76764,59.23914z"/><path d="M27.41101,52.97748c-2.03284,0-3.68658,1.65375-3.68658,3.68634c0,2.03314,1.65375,3.68689,3.68658,3.68689  c2.0329,0,3.68665-1.65375,3.68665-3.68689C31.09766,54.63123,29.44391,52.97748,27.41101,52.97748z M27.41101,59.23914  c-1.4198,0-2.57507-1.15546-2.57507-2.57532c0-1.4198,1.15527-2.57477,2.57507-2.57477c1.41986,0,2.57507,1.15497,2.57507,2.57477  C29.98608,58.08368,28.83087,59.23914,27.41101,59.23914z"/><rect x="36.1593" y="48.01678" width="0.55579" height="7.30426"/><rect x="54.7262" y="47.461" width="0.55573" height="7.86005"/><path d="M47.26935,40.97571c-2.87384,0.93622-5.56183,2.336-7.98895,4.16016l-1.42719,1.07245l16.02789-0.65454  l1.50775-5.9317l-0.74493,0.0304C52.13293,39.75452,49.65173,40.20013,47.26935,40.97571z M53.00781,44.47699l-11.51575,0.47052  c1.90802-1.23309,3.96014-2.21057,6.1214-2.91455c2.04913-0.66754,4.17426-1.08008,6.32788-1.22876L53.00781,44.47699z"/><path d="M66.74719,40.53882c-1.53705-0.40436-3.12048-0.69043-4.70587-0.84943  c-1.55743-0.15631-3.14087-0.19159-4.70563-0.10583l-0.47327,0.02551L56.24884,45.487l11.40582-0.40924l0.38538-2.45593  l-1.05511-2.02063L66.74719,40.53882z M66.69867,43.99988l-9.21124,0.33002l0.38177-3.65869  c1.35388-0.05316,2.71783-0.00977,4.06116,0.12433c1.44641,0.1449,2.89063,0.39941,4.29718,0.75659l0.65753,1.2597  L66.69867,43.99988z"/><path d="M71.81512,42.30273c-0.74194-0.45703-1.54626-0.7995-2.39136-1.01715l-1.0437-0.26971l1.52649,3.98053  l4.68555-0.10803L73.81244,43.995C73.23492,43.33282,72.56305,42.76349,71.81512,42.30273z M70.66394,43.86743l-0.43665-1.13812  c0.34711,0.14764,0.6828,0.32129,1.00494,0.51996c0.28766,0.17749,0.56256,0.37286,0.82306,0.58618L70.66394,43.86743z"/><rect x="69.62787" y="46.90521" width="0.55579" height="2.06409"/></svg>