<svg xmlns="http://www.w3.org/2000/svg" xmlns:xlink="http://www.w3.org/1999/xlink" version="1.1" x="0px" y="0px" viewBox="0 0 50 62.5" style="enable-background:new 0 0 50 50;" xml:space="preserve"><g><path d="M45.8,15.1c-8.8-3.7-21.5-1.4-24-0.2c-6.4,3-7.5,5-9.1,5.5c-1.2,0.3-3.4-0.1-7.8,1.3c-1.5,0.5-2.8,1.7-3.3,3.2   c-0.5,1.6-0.7,3.2-0.4,4.9c0.1,1.1,0.8,2,1.7,2.5c-0.4-3.3,2.6-7.3,7-7.3c4.4,0,7.5,4,6.9,7.8l16.7,0.1c-0.7-3.8,2.5-7.9,6.9-7.9   c3.7,0,6.7,2.9,7,6.5c0.3-0.4,0.6-0.8,0.9-1.2C50.4,26.9,47.7,15.6,45.8,15.1z M28.3,20l-11.8,0.2c1.3-0.9,3-2.1,6.1-3.6   c1.1-0.5,4.8-1,6-1.2L28.3,20z M30.3,20l0.3-4.7c2.7-0.3,5.1-0.3,7.3-0.1c1.3,1.3,1.7,3.4,1.8,4.6L30.3,20z M41.7,19.8   c-0.1-1-0.3-2.7-1.1-4.2c1.5,0.3,2.9,0.7,4.3,1.3c0.2,0.3,0.6,1.2,1,2.9H41.7z"/><path d="M9.8,26.9c-2.8,0-5,2.2-5,5s2.2,5,5,5c2.8,0,5-2.2,5-5S12.5,26.9,9.8,26.9z"/><circle cx="40.4" cy="31.9" r="5"/></g></svg>