<svg xmlns="http://www.w3.org/2000/svg" xmlns:xlink="http://www.w3.org/1999/xlink" version="1.1" x="0px" y="0px" viewBox="0 0 100 125" style="enable-background:new 0 0 100 100;" xml:space="preserve"><style type="text/css">
	.st0{display:none;}
</style><g><path d="M94.1,55.1l-1.3-0.7c0.2-1.8,0.7-6.3-0.1-9.6c-1-4.1-8.8-12.9-9.1-13.3c-0.2-0.2-0.4-0.3-0.7-0.3c-21.6-2-38.6,0-38.8,0   c-0.2,0-0.5,0.1-0.6,0.3l-9.7,10.6L7.3,48.1c-0.4,0.1-0.7,0.4-0.8,0.8l-1,6.9c0,0,0,0.1,0,0.1v3c0,0.1,0,0.3,0.1,0.4l2,4.9   c0.2,0.4,0.5,0.6,0.9,0.6H16c1.2,2.9,4,4.9,7.3,4.9c3.4,0,6.3-2.1,7.4-5.1c0.2,0.1,0.3,0.2,0.5,0.2h40.6c0.2,0,0.4-0.1,0.5-0.2   c1.1,3,4,5.1,7.4,5.1c3.7,0,6.8-2.6,7.7-6c0.1,0,0.2,0,0.2,0h3c0.4,0,0.8-0.2,0.9-0.6l3-6.9C94.7,55.9,94.5,55.3,94.1,55.1z    M8.5,49.9l2.2-0.5V55h-3L8.5,49.9z M15.5,61.9c0,0.3,0,0.7,0.1,1H9.2l-1.7-4.1V57h9.6C16.1,58.3,15.5,60,15.5,61.9z M23.4,67.8   c-3.3,0-5.9-2.7-5.9-5.9s2.7-5.9,5.9-5.9s5.9,2.7,5.9,5.9S26.7,67.8,23.4,67.8z M30.2,57.8c-1.4-2.3-3.9-3.8-6.8-3.8   c-1.4,0-2.7,0.4-3.8,1h-6.9v-5.9c0,0,0-0.1,0-0.1l20.5-4.6c-0.1,2.6-0.2,8.4,0.2,13.4H30.2z M31.3,62.9   C31.3,62.9,31.3,62.9,31.3,62.9c0-0.3,0-0.6,0-1c0-0.7-0.1-1.4-0.3-2.1h2.7c0.2,1.1,0.4,2.2,0.6,3.1H31.3z M60.5,62.9H36.4   c-0.3-0.8-0.5-1.9-0.7-3.1h25.2C60.8,61,60.7,62.1,60.5,62.9z M61.1,57.8H35.4c-0.6-5.6-0.3-12.7-0.2-14.3l9.4-10.3   c1.6-0.2,8-0.8,17.3-0.8C61.9,36.1,61.8,49.4,61.1,57.8z M71.9,62.9C71.9,62.9,71.9,62.9,71.9,62.9l-9.4,0c0.2-0.9,0.3-1.9,0.4-3.1   h9.2c-0.2,0.7-0.3,1.4-0.3,2.1C71.8,62.2,71.9,62.6,71.9,62.9z M72.8,57.8h-9.7c0.7-8.4,0.8-21.2,0.8-25.5c5.4,0,11.6,0.2,18.3,0.8   c2.3,2.7,7.7,9.2,8.4,12.1c0.7,2.9,0.3,6.9,0.1,8.6h-9.5c-0.1,0-0.3,0-0.4,0.1C80.5,54,80.2,54,79.8,54c-2.9,0-5.4,1.6-6.8,3.9   C72.9,57.8,72.9,57.8,72.8,57.8z M79.8,67.8c-3.3,0-5.9-2.7-5.9-5.9s2.7-5.9,5.9-5.9s5.9,2.7,5.9,5.9S83,67.8,79.8,67.8z M90,61.9   h-2.3c0-2.4-1-4.5-2.7-5.9h6.4l0.9,0.5L90,61.9z"/><path d="M23.4,57.8c-2.3,0-4.1,1.8-4.1,4.1s1.8,4.1,4.1,4.1s4.1-1.8,4.1-4.1S25.6,57.8,23.4,57.8z M23.4,64c-1.2,0-2.1-0.9-2.1-2.1   s0.9-2.1,2.1-2.1c1.2,0,2.1,0.9,2.1,2.1S24.5,64,23.4,64z"/><path d="M79.8,57.8c-2.3,0-4.1,1.8-4.1,4.1s1.8,4.1,4.1,4.1s4.1-1.8,4.1-4.1S82,57.8,79.8,57.8z M79.8,64c-1.2,0-2.1-0.9-2.1-2.1   s0.9-2.1,2.1-2.1s2.1,0.9,2.1,2.1S80.9,64,79.8,64z"/><path d="M37.5,44.4c-0.3,0.3-0.3,0.7-0.2,1.1s0.5,0.6,0.9,0.6H59c0.6,0,1-0.4,1-1v-9.9c0-0.6-0.4-1-1-1h-9.9c-2.3,0-4.4,2-4.7,2.3   L37.5,44.4z M49.1,36.2H58v7.9H40.4l5.4-6.2C46.3,37.4,47.8,36.2,49.1,36.2z"/><path d="M86.6,44.6c0.2-0.3,0.2-0.7-0.1-1l-5.9-8.8c-0.2-0.3-0.5-0.4-0.8-0.4H65.9c-0.6,0-1,0.4-1,1v8.8c0,0.6,0.4,1,1,1h19.8   C86.1,45.1,86.4,44.9,86.6,44.6z M66.9,43.1v-6.8h12.3l4.6,6.8H66.9z"/><path d="M59,50H54c-0.6,0-1,0.4-1,1c0,0.6,0.4,1,1,1H59c0.6,0,1-0.4,1-1C60,50.5,59.5,50,59,50z"/></g></svg>