<svg xmlns="http://www.w3.org/2000/svg" xmlns:xlink="http://www.w3.org/1999/xlink" version="1.1" x="0px" y="0px" viewBox="0 0 100 125" style="enable-background:new 0 0 100 100;" xml:space="preserve"><path d="M30.58728,50.91034c-2.0329,0-3.68665,1.65375-3.68665,3.68634c0,2.03314,1.65375,3.68689,3.68665,3.68689  c2.03284,0,3.68658-1.65375,3.68658-3.68689C34.27386,52.56409,32.62012,50.91034,30.58728,50.91034z M30.58728,57.172  c-1.41986,0-2.57507-1.15552-2.57507-2.57532c0-1.41986,1.15521-2.57483,2.57507-2.57483c1.4198,0,2.57507,1.15497,2.57507,2.57483  C33.16235,56.01648,32.00708,57.172,30.58728,57.172z"/><path d="M68.58099,50.91034c-2.0329,0-3.68665,1.65375-3.68665,3.68634c0,2.03314,1.65375,3.68689,3.68665,3.68689  c2.03284,0,3.68658-1.65375,3.68658-3.68689C72.26758,52.56409,70.61383,50.91034,68.58099,50.91034z M68.58099,57.172  c-1.41986,0-2.57507-1.15552-2.57507-2.57532c0-1.41986,1.15521-2.57483,2.57507-2.57483c1.4198,0,2.57507,1.15497,2.57507,2.57483  C71.15607,56.01648,70.00079,57.172,68.58099,57.172z"/><path d="M83.65906,49.11597l-2.69586-3.09363l-0.21954-0.07111c-1.0697-0.3468-2.72595-0.87927-4.75769-1.50885  c-2.41577-0.74896-7.44812-2.2486-14.0094-3.88007c-2.84863-0.70831-4.76508-1.13977-7.35071-1.15936  c-1.5954-0.02112-3.2041,0.13354-4.77264,0.43152c-1.58514,0.30066-3.1485,0.76038-4.67743,1.37909l-8.45245,3.81714  c-1.83124,0.01196-3.67578,0.13898-5.48529,0.37726c-1.87927,0.2475-3.76123,0.62091-5.59412,1.10938l-0.06213,0.01898  c-1.94983,0.68658-3.81067,1.60815-5.53033,2.73816c-1.22198,0.80328-2.38214,1.71887-3.44781,2.72076l-0.2627,0.24701v5.46167  h9.07776v-0.07074c1.04474,1.77124,2.96753,2.9657,5.16858,2.9657c2.17151,0,4.07153-1.16296,5.12555-2.89496h27.74261  c1.05402,1.73199,2.95404,2.89496,5.12555,2.89496c2.17883,0,4.08447-1.17084,5.13623-2.9126l9.94183-1.14496V49.11597z   M80.65479,48.2063l0.71515,0.8205c-0.95123,0.09381-1.90552,0.0401-2.81165-0.18219  c-0.15143-0.03741-0.30176-0.07922-0.45099-0.12482L80.65479,48.2063z M24.85944,48.60309  c-0.27448,0.37122-0.64722,0.75024-1.16046,1.05511c-0.68365,0.40613-1.37701,0.52832-1.96472,0.53845  C22.73517,49.59204,23.77759,49.05511,24.85944,48.60309z M30.58728,58.93158c-2.39026,0-4.33496-1.94464-4.33496-4.3349  s1.9447-4.33496,4.33496-4.33496s4.3349,1.9447,4.3349,4.33496S32.97754,58.93158,30.58728,58.93158z M68.58099,58.93158  c-2.39026,0-4.33496-1.94464-4.33496-4.3349s1.9447-4.33496,4.33496-4.33496s4.3349,1.9447,4.3349,4.33496  S70.97125,58.93158,68.58099,58.93158z M74.42987,55.92584c0.09735-0.42822,0.15332-0.87189,0.15332-1.32916  c0-3.30969-2.69257-6.00226-6.0022-6.00226c-3.30969,0-6.00226,2.69257-6.00226,6.00226c0,0.49713,0.06744,0.97766,0.18188,1.43988  H36.40765c0.11444-0.46222,0.18188-0.94275,0.18188-1.43988c0-3.30969-2.69257-6.00226-6.00226-6.00226  s-6.00226,2.69257-6.00226,6.00226c0,0.49713,0.06744,0.97766,0.18188,1.43988H18.0083V52.9668  c0.71887-0.65582,1.49097-1.25391,2.2854-1.81677c0.32776,0.0824,0.79889,0.16901,1.36292,0.16901  c0.76666,0,1.69122-0.15961,2.61011-0.70557c1.28015-0.76019,1.8891-1.87158,2.16284-2.5686  c1.65161-0.42505,3.33862-0.76154,5.02637-0.9837c1.79785-0.23718,3.63177-0.35931,5.45056-0.36365l0.17853-0.00055l8.7464-3.95068  c1.39703-0.56445,2.85461-0.99323,4.33276-1.2738c1.46216-0.27789,2.9599-0.41522,4.44946-0.40216  c2.40082,0.01788,4.23126,0.43146,6.96069,1.11047c6.52112,1.62115,11.51929,3.11047,13.91797,3.854  c1.6217,0.50281,2.98126,0.9361,4.01404,1.26898l-4.84662,0.97693l1.31915,0.73218c0.73193,0.40649,1.5105,0.71313,2.31372,0.91071  c0.72461,0.17804,1.47522,0.26703,2.23181,0.26703c0.48871,0,0.97882-0.05023,1.46729-0.12439v4.98907L74.42987,55.92584z"/><path d="M58.66907,42.08417L58.091,41.99188c-1.83691-0.29364-3.70667-0.35712-5.5564-0.19049  c-1.56769,0.14166-2.78918,0.41901-3.3783,0.57153c-2.41144,0.62793-4.70538,1.74597-6.81799,3.32324l-1.38458,1.03394  l16.79236-0.31915L58.66907,42.08417z M56.84296,45.31677L44.5318,45.55066c1.55768-0.95361,3.20087-1.65863,4.90399-2.10205  c0.55554-0.1438,1.70996-0.4054,3.19873-0.54004c0.6366-0.0575,1.27545-0.0863,1.91479-0.0863  c0.93109,0,1.86273,0.06079,2.78674,0.18292L56.84296,45.31677z"/><path d="M62.60425,43.08881c-0.73218-0.28821-1.4942-0.51563-2.26489-0.67572l-0.58539-0.12158l-0.52863,3.99512  l0.67383-0.04175c0.93085-0.05756,1.87518-0.14001,2.80737-0.24591c0.85724-0.09711,1.71887-0.2149,2.56152-0.35059l1.35303-0.21765  l-1.12268-0.78644C64.59747,44.01361,63.62378,43.49042,62.60425,43.08881z M62.58142,44.89447  c-0.68903,0.07819-1.38483,0.14331-2.07629,0.19489l0.19189-1.45239c0.50964,0.13135,1.01196,0.29419,1.50012,0.48627  c0.47632,0.18726,0.94171,0.40381,1.39301,0.64752C63.25415,44.81525,62.91742,44.85651,62.58142,44.89447z"/><rect x="38.5719" y="47.99738" width="0.55579" height="6.04352"/><rect x="57.01077" y="47.76417" transform="matrix(-0.92862 -0.37103 0.37103 -0.92862 91.55848 119.65243)" width="0.55585" height="6.50992"/></svg>